<mxfile host="app.diagrams.net" modified="2021-09-12T11:32:34.988Z" agent="5.0 (Windows NT 10.0; Win64; x64) AppleWebKit/537.36 (KHTML, like Gecko) Chrome/93.0.4577.63 Safari/537.36" etag="mqC2www3FJeomsSZ1jJe" version="14.6.1" type="github">
  <diagram id="nfWwAzirSv5TLzWC6x2L" name="Page-1">
    <mxGraphModel dx="782" dy="379" grid="1" gridSize="10" guides="1" tooltips="1" connect="1" arrows="1" fold="1" page="1" pageScale="1" pageWidth="1169" pageHeight="1654" math="0" shadow="0">
      <root>
        <mxCell id="0" />
        <mxCell id="1" parent="0" />
        <mxCell id="da4W0MBnFq4YFavW9wsa-1" value="" style="shape=offPageConnector;whiteSpace=wrap;html=1;rotation=-180;size=0.375;fillColor=#e1d5e7;strokeColor=#9673a6;" vertex="1" parent="1">
          <mxGeometry x="360" y="160" width="80" height="80" as="geometry" />
        </mxCell>
      </root>
    </mxGraphModel>
  </diagram>
</mxfile>
